<svg version="1.1" id="logo" xmlns="http://www.w3.org/2000/svg" x="0px" y="0px" viewBox="0 0 501 559">
<style type="text/css">
  .st0c{fill:url(#SVGID_1_2);}
  .st1c{fill:white;}
</style>
<radialGradient id="SVGID_1_2" cx="251.5" cy="279.2117" r="264.0785" gradientUnits="userSpaceOnUse">
  <stop  offset="0" style="stop-color:#666666"/>
  <stop  offset="0.1948" style="stop-color:#585D63"/>
  <stop  offset="0.7164" style="stop-color:#36495D"/>
  <stop  offset="1" style="stop-color:#29415A"/>
</radialGradient>
<path class="st0c" d="M251.5,558.9c-6.9,0-13.8-1.8-19.8-5.3l-208-120.1C11.6,426.5,4,413.4,4,399.3V159.1c0-14.1,7.6-27.2,19.8-34.2
  l208-120.1c6-3.5,12.8-5.3,19.8-5.3c6.9,0,13.8,1.8,19.8,5.3l208,120.1c12.2,7,19.8,20.1,19.8,34.2v240.2c0,14.1-7.6,27.2-19.8,34.2
  l-208,120.1C265.3,557.1,258.4,558.9,251.5,558.9z"/>
<g>
  <path class="st1c" d="M498.2,300.3l-42.8-72.6c-3.1-5.3-8.9-8.6-15.1-8.6c-0.1,0-0.1,0-0.2,0l-73.9,0.7l-38-64.4
    c-4.9-8.3-15.6-11.1-24-6.2c-8.3,4.9-11.1,15.6-6.2,24l37.8,64.1l-31.7,56l-36.4,0.3c-9.7,0.1-17.4,8-17.3,17.7
    c0.1,9.6,7.9,17.3,17.5,17.3c0.1,0,0.1,0,0.2,0l36.4-0.3l32.7,55.4l-36.6,64.8c-4.8,8.4-1.8,19.1,6.6,23.8c2.7,1.5,5.7,2.3,8.6,2.3
    c6.1,0,12-3.2,15.3-8.9l36.8-65.1l73.9-0.7c6.3-0.1,12-3.4,15.1-8.9l41.5-73.4C501.4,312.3,501.4,305.7,498.2,300.3z M431.4,365.1
    l-64.1,0.6l-32.6-55.2l31.5-55.8l64.1-0.6l32.6,55.2L431.4,365.1z"/>
  <path class="st1c" d="M231.7,147.3c-0.1,0-0.1,0-0.2,0l-37,0.3l-37.7-63.9c-4.9-8.3-15.6-11.1-24-6.2c-8.3,4.9-11.1,15.6-6.2,24
    l38,64.4l-31.5,55.8l-74.4,0.7c-6.3,0.1-12,3.4-15.1,8.9L2.2,304.7c-3.1,5.4-3,12.1,0.2,17.5l42.8,72.6c3.1,5.3,8.9,8.6,15.1,8.6
    c0.1,0,0.1,0,0.2,0l84.3-0.8c6.3-0.1,12-3.4,15.1-8.9l41.5-73.4c3.1-5.4,3-12.1-0.2-17.5l-37.6-63.7l31.9-56.5l36.4-0.3
    c9.7-0.1,17.4-8,17.3-17.7C249.1,155,241.3,147.3,231.7,147.3z"/>
  <circle class="st1c" cx="272.5" cy="164.4" r="17.5"/>
  <circle class="st1c" cx="227.1" cy="311" r="17.5"/>
</g>
</svg>
